<?xml version="1.0" encoding="utf-8"?>
<!-- Generator: Adobe Illustrator 19.2.0, SVG Export Plug-In . SVG Version: 6.00 Build 0)  -->
<svg version="1.1" id="Layer_1" xmlns="http://www.w3.org/2000/svg" xmlns:xlink="http://www.w3.org/1999/xlink" x="0px" y="0px"
	 viewBox="0 0 61.3 41" style="enable-background:new 0 0 61.3 41;" xml:space="preserve">
<path d="M29.6,0.7C29.6,0.7,29.6,0.6,29.6,0.7c0.2-0.1,0.6-0.2,0.9-0.2c0.1,0,0.3,0.1,0.5,0.2c0.3,0,0.6,0,0.9,0.1h0.2v0.1h0.2V1
	h0.2v0.1c0.1,0,0.3,0,0.4,0.1c0.2,0.1,0.3,0.4,0.5,0.5c0.1,0.1,0.3,0.1,0.4,0.2C33.9,2,33.9,2.1,34,2.2h0.2c0.1,0.1,0.2,0.3,0.3,0.4
	s0.2,0.1,0.3,0.3C34.9,3,34.9,3.1,35,3.2c0.1,0.1,0.3,0.3,0.5,0.4c0.2,0.2,0.3,0.3,0.5,0.5s0.4,0.4,0.6,0.6c0,0,0.1,0,0.1,0.1
	s0.6,0.6,0.8,0.8c0.1,0.1,0.2,0.2,0.3,0.3s0.6,0.3,0.6,0.5c0,0.1,0.3,0.3,0.4,0.4L39,6.9v0.2c0.2,0.2,0.5,0.4,0.8,0.7
	C40,8,40.1,8.3,40.3,8.5c0.1,0.1,0.2,0.3,0.3,0.4L40.8,9c0,0,0,0.1,0,0.2c0.1,0.1,0.2,0.2,0.3,0.3c0,0.1,0.1,0.1,0.1,0.2
	c0.1,0.1,0.3,0.2,0.3,0.4c0,0.1,0.2,0.1,0.2,0.2c0,0,0,0.1,0,0.2l0.2,0.1c0.1,0.2,0.1,0.3,0.2,0.5c0,0,0.1,0,0.1,0.1
	c0,0.2,0.3,0.3,0.4,0.4v0.2c0.1,0.1,0.2,0.1,0.3,0.3c0.1,0.1,0.3,0.2,0.3,0.4c0,0.1,0.2,0.1,0.2,0.2c0,0,0,0.1,0,0.2l0.2,0.1v0.2
	c0.1,0.1,0.2,0.1,0.3,0.2v0.2c0.1,0.1,0.1,0.1,0.2,0.2l0.2,0.1c0.1,0.1,0,0.2,0.1,0.4c0,0,0.1,0,0.1,0.1c0,0.2,0.3,0.4,0.5,0.6
	c0.2,0.2,0.3,0.5,0.5,0.7c0.1,0.1,0.3,0.4,0.4,0.6c0.1,0.1,0.1,0.2,0.2,0.3s0.1,0.2,0.2,0.3c0.1,0,0.1,0.2,0.1,0.3
	c0.4,0.3,0.8,1.1,1.2,1.6c0.1,0.1,0.2,0.2,0.3,0.3v0.2l0.2,0.1v0.2c0.1,0.1,0.2,0.2,0.3,0.4c0.1,0.1,0.1,0.2,0.2,0.3
	s0.1,0.2,0.2,0.3c0.1,0,0.1,0.2,0.1,0.3H49v0.2c0.1,0.1,0.1,0.1,0.2,0.2l0.1,0.1c0.1,0.1,0,0.2,0.1,0.4c0,0,0.2,0,0.2,0.1
	c0,0,0,0.1,0,0.2c0.1,0.1,0.4,0.1,0.4,0.4c0,0.1,0.2,0.1,0.2,0.3c0,0.1,0.2,0.1,0.2,0.3c0,0.1,0.3,0.3,0.4,0.4l0.2,0.1v0.2
	c0.1,0.1,0.2,0.2,0.3,0.3l0.2,0.1c0,0,0,0.1,0,0.2c0.1,0.1,0.2,0.1,0.3,0.3c0,0.1,0.1,0.1,0.1,0.2c0.1,0.1,0.1,0.2,0.2,0.3
	s0.1,0.2,0.2,0.3s0.2,0.3,0.3,0.4l0.2,0.1c0,0,0,0.1,0,0.2l0.2,0.1v0.2c0.1,0.1,0.2,0.1,0.3,0.2v0.2c0.2,0.1,0.3,0.4,0.5,0.6
	l0.1,0.1c0.1,0.1,0,0.3,0.1,0.4c0.1,0.1,0.2,0.2,0.3,0.3c0.2,0.2,0.4,0.6,0.6,0.9c0,0,0.1,0,0.1,0.1c0,0,0.1,0.2,0.1,0.3l0.2,0.1
	c0.1,0.2,0.1,0.3,0.2,0.5c0,0,0.1,0,0.1,0.1s0.3,0.3,0.4,0.4c0.1,0.1,0.1,0.2,0.2,0.3c0.1,0.2,0.4,0.3,0.5,0.4v0.2
	c0.1,0.1,0.1,0.1,0.2,0.2l0.2,0.1v0.2c0.2,0.2,0.4,0.3,0.5,0.4c0.3,0.3,0.6,0.8,0.9,1.2c0.1,0.1,0.2,0.2,0.3,0.3
	c0.2,0.2,0.3,0.5,0.5,0.7c0,0.1,0.1,0.1,0.1,0.1c0.2,0.2,0.3,0.5,0.4,0.6c0.1,0.2,0.4,0.3,0.5,0.4s0.1,0.3,0.2,0.4l0.2,0.1
	c0,0,0,0.1,0,0.2l0.2,0.1c0.1,0.1,0,0.2,0.1,0.4c0,0,0.1,0,0.1,0.1c0.1,0.2,0,0.6,0.1,0.8c0,0.3,0.1,0.5,0.1,0.6
	c0,0.5-0.6,1.3-1,1.7l-0.1,0.2c0,0-0.1,0-0.2,0s-0.1,0.2-0.2,0.2c-0.2,0.1-0.5,0.1-0.8,0.2c-0.5,0.1-0.8,0.3-1.4,0.2
	c-0.2,0-0.3-0.1-0.5-0.2c-0.4-0.1-0.7-0.1-1-0.1c-0.1,0-0.4,0-0.5-0.1s-0.4-0.2-0.8-0.2h-0.2c-0.1-0.1-0.1-0.1-0.3-0.1h-0.2
	c-0.1-0.1-0.8-0.3-1-0.3c-0.5-0.1-1.1-0.2-1.7-0.4h-0.2c-0.1-0.1-0.7-0.1-1-0.2c0,0,0-0.1-0.1-0.1s-0.2,0-0.3-0.1
	C49.6,39.1,49.3,39,49,39c-0.1,0-0.4-0.1-0.6-0.2c0,0,0-0.1-0.1-0.1s-0.2,0-0.3-0.1c-0.1,0-0.3-0.1-0.5-0.2
	c-0.5-0.1-1.2-0.3-1.7-0.5c-0.3-0.2-1.1-0.4-1.5-0.6c-0.6-0.2-1.3-0.4-1.9-0.6c-0.1,0-0.2,0-0.4-0.1c0,0,0-0.1-0.1-0.1
	s-0.4-0.1-0.6-0.2c0,0,0-0.1-0.1-0.1s-0.3-0.1-0.5-0.2l-0.1-0.1c-0.1-0.1-0.2,0-0.4-0.1l-0.1-0.2c-0.1-0.1-0.2,0-0.4-0.1
	c0,0,0-0.1-0.1-0.1c0,0-0.2-0.1-0.3-0.1s-0.2-0.1-0.5-0.2c-0.1,0-0.1,0-0.2-0.1c0,0-0.3,0-0.3-0.1v-0.1h-0.2
	c-0.1-0.1-0.1-0.1-0.2-0.2c0,0-0.3,0-0.3-0.1v-0.1h-0.2c-0.2-0.2-0.6-0.2-1-0.4c-0.1,0-0.3-0.1-0.5-0.2c-0.1,0-0.4-0.1-0.6-0.2
	c0,0,0-0.1-0.1-0.1s-0.2,0-0.3-0.1s-0.3-0.1-0.6-0.2c0,0,0-0.1-0.1-0.1c0,0-0.1-0.1-0.2-0.1c0.5-0.7,0.2-0.7-0.1-0.8
	c0,0,0-0.1-0.1-0.1s-0.3-0.1-0.4-0.2c0,0-0.3,0-0.3-0.1v-0.1h-0.2v-0.1c-0.1-0.1-0.2,0-0.4-0.1c0,0,0-0.1-0.1-0.1
	c0,0-0.2-0.1-0.3-0.1L32,31.1c-0.1-0.1-0.2,0-0.4-0.1c0,0,0-0.1-0.1-0.1s-0.1-0.1-0.2-0.2c-0.2-0.1-0.3-0.1-0.5-0.2
	c-0.1,0,0-0.1-0.1-0.1s-0.2-0.2-0.3-0.2S30.2,30,30,30c-0.1,0-0.2-0.2-0.3-0.2s-0.2-0.2-0.3-0.2s-0.2-0.2-0.3-0.2s-0.1-0.1-0.2-0.2
	c-0.1-0.1-0.2,0-0.4-0.1c0,0,0-0.1-0.1-0.1s-0.3-0.1-0.6-0.2c-0.7,0-1.2,0.3-1.7,0.6h-0.2v0.1c-0.2,0.1-0.4,0.1-0.6,0.1
	c0,0,0,0.1-0.1,0.1s-0.2,0.2-0.4,0.2c-0.2,0.1-0.5,0.2-0.7,0.3c-0.6,0.3-1.2,0.5-1.7,0.8c-0.1,0-0.1,0.2-0.2,0.2H22
	c0,0-0.4,0.3-0.5,0.3c-0.3,0.1-0.6,0.3-1,0.4h-0.2V32h-0.2v0.1h-0.2c0,0.1-0.3,0.2-0.4,0.3h-0.2v0.1h-0.2v0.1
	c-0.8,0.4-1.6,0.8-2.4,1.3c-0.2,0.1-0.4,0.3-0.5,0.3s-0.5,0.3-0.6,0.3s-0.1,0.1-0.2,0.2h-0.2c-0.1,0.1-0.1,0.2-0.2,0.3h-0.2v0.1
	h-0.2v0.1h-0.2c-0.1,0.1-0.1,0.1-0.2,0.1l-0.3,0.1v0.1c0.2,0.8-0.1,0.8-0.2,0.8c0,0-0.1,0.2-0.2,0.2c-0.1,0-0.2,0-0.3,0
	c0,0,0,0.1-0.1,0.1s-0.2,0.2-0.4,0.2c-0.3,0.1-0.5,0.2-0.8,0.3c-0.2,0.1-0.4,0-0.6,0.1c0,0,0,0.1-0.1,0.1c-0.1,0-0.5,0.2-0.7,0.3
	c-0.1,0-0.2,0.1-0.3,0.1H10c-0.1,0.1-0.3,0.1-0.5,0.2c0,0,0,0.1-0.1,0.1s-0.2,0.1-0.3,0.1c-0.4,0.1-0.7,0.2-1.1,0.3
	c-0.1,0-0.1,0.1-0.3,0.1c-0.2,0-0.5,0-0.7,0.1c-0.5,0.2-0.9,0.5-1.5,0.8H5.3v0.1H5.1v0.1H4.9v0.1H4.7v0.1c-0.1,0.1-0.3,0.1-0.5,0.1
	c0,0,0,0.1-0.1,0.1c-0.2,0-0.2,0.1-0.5,0.1c-0.6,0.1-1.4,0-2-0.2c-0.1,0-0.2,0-0.3-0.1c-0.1,0,0-0.1-0.1-0.1s-0.4-0.3-0.5-0.5
	c0,0-0.1,0-0.1-0.1V39c0-0.1,0-0.2-0.1-0.5c0,0-0.1,0-0.1-0.1v-0.1c-0.1-0.2-0.2-0.5-0.3-0.8c-0.1-0.3-0.1-0.6,0-1
	c0.1-0.3,0.3-0.5,0.3-1c0-0.1,0-0.1,0-0.2c0-0.1,0.1-0.3,0.1-0.6c0-0.1,0-0.1,0-0.2s0.1-0.3,0.2-0.5l0.2-0.1c0-0.1,0-0.1,0-0.2
	l0.2-0.1c0.1-0.1,0-0.3,0.1-0.6c0,0,0.1,0,0.1-0.1s0.1-0.3,0.2-0.4c0-0.1,0.1-0.3,0.2-0.5c0-0.1,0.1-0.2,0.2-0.3
	c0.6-1.3,1.4-2.3,2-3.5c0-0.1,0-0.1,0.1-0.2c0.1-0.1,0.1-0.2,0.2-0.3s0.1-0.2,0.2-0.3s0.1-0.2,0.2-0.3s0.1-0.2,0.2-0.3
	c0-0.1,0.2-0.2,0.3-0.4c0.1-0.1,0.1-0.2,0.2-0.3L5.5,26c0,0,0-0.1,0-0.2c0.1-0.2,0.3-0.3,0.4-0.5s0.3-0.3,0.4-0.5
	c0.4-0.5,0.9-1,1.3-1.5c0.2-0.2,0.4-0.5,0.6-0.8c0-0.1,0.1,0,0.1-0.1s0.4-0.5,0.5-0.7s0.3-0.3,0.4-0.5c0.2-0.2,0.3-0.3,0.4-0.5
	c0.5-0.5,1-1.1,1.6-1.7l0.1-0.2h0.2c0.1-0.1,0.3-0.3,0.4-0.5c0.1-0.2,0.3-0.3,0.4-0.5c0.3-0.3,0.5-0.7,0.8-1.1
	c0.1-0.2,0.3-0.3,0.4-0.5c0.1-0.2,0.3-0.3,0.4-0.5c0.8-0.9,1.8-2,2.6-3c1.1-1.3,2.3-2.6,3.6-3.9c0.6-0.6,1.1-1.3,1.7-2
	c0.3-0.3,0.7-0.6,1-0.9c0.2-0.2,0.3-0.3,0.4-0.5c0.1-0.1,0.2-0.1,0.3-0.2L23.6,5h0.2c0.2-0.2,0.3-0.3,0.4-0.5
	c0.1-0.2,0.3-0.3,0.4-0.5c0.3-0.3,0.6-0.7,0.9-1c0.3-0.3,0.6-0.6,1-0.9c0.2-0.2,0.4-0.4,0.7-0.7c0.2-0.2,0.4-0.3,0.7-0.5h0.2
	l0.1-0.2c0.1-0.1,0.2,0,0.3-0.1s0.1-0.2,0.2-0.3c0.1-0.1,0.2-0.1,0.3-0.1S29.1,0,29.2,0C29.3,0.8,29.3,0.8,29.6,0.7z M30,6.5
	l-0.2,0.1c-0.1,0.1,0,0.2-0.1,0.3s-0.3,0.2-0.4,0.3C29.2,7.3,29,7.5,29,7.6h-0.2c-0.2,0.2-0.3,0.4-0.4,0.6c-0.1,0.1-0.3,0.2-0.4,0.3
	c-0.2,0.3-0.4,0.5-0.6,0.7c-0.2,0.2-0.3,0.4-0.4,0.5c-0.1,0.1-0.2,0-0.3,0.1c-0.2,0.2-0.4,0.5-0.6,0.7c-0.5,0.5-0.9,0.9-1.3,1.3
	c-0.4,0.4-0.8,0.9-1.2,1.4c-0.7,0.7-1.4,1.3-1.9,2c-0.2,0.2-0.3,0.5-0.5,0.8c-0.2,0.2-0.5,0.4-0.7,0.6c-0.2,0.2-0.4,0.5-0.6,0.8
	c-0.8,0.9-1.6,1.9-2.4,2.8c-1.2,1.4-2.5,2.8-3.7,4.2c-0.2,0.3-0.6,0.6-0.8,0.8c-0.3,0.2-0.5,0.5-0.6,0.7c-0.1,0.1-0.1,0.1-0.2,0.2
	c-0.3,0.4-0.6,0.8-0.9,1.1c-0.4,0.5-1.1,0.8-1.3,1.4c-0.2,0-0.4,0.3-0.5,0.4c-0.3,0.3-0.4,0.6-0.6,0.9c-0.1,0.2-0.3,0.3-0.4,0.5
	c-0.1,0.1-0.1,0.3-0.2,0.4C8.2,30.9,8.1,30.9,8,31c0,0,0,0.1,0,0.2l-0.2,0.1l-0.1,0.2c0,0.2-0.2,0.2-0.3,0.3V32
	c-0.1,0.2-0.3,0.3-0.4,0.5c-0.1,0.2-0.3,0.4-0.1,0.7c1.3-0.1,2.5-0.5,3.3-1h0.1c0.1,0,0.1-0.1,0.1-0.1c0.3-0.1,0.6-0.1,0.8-0.2v-0.1
	h0.2c0.1,0,0.1-0.2,0.2-0.2c0.2-0.1,0.4-0.1,0.5-0.2c0,0,0.1-0.2,0.2-0.2c0.1,0,0.1,0,0.2,0c0.1,0,0.1-0.1,0.1-0.1
	c0.6-0.3,1.1-0.4,1.6-0.7c0.2-0.1,0.3-0.2,0.4-0.3c0.1-0.1,0.3-0.2,0.4-0.2c0.1,0,0.1,0,0.2,0c0,0,0.1-0.2,0.2-0.2
	c0.1,0,0.1,0,0.2,0c0.2,0,0.3-0.1,0.4-0.2c0.1,0,0.1-0.2,0.2-0.2c0.1-0.1,0.4-0.1,0.5-0.2c0,0,0.1-0.2,0.2-0.2
	c0.1-0.1,0.2-0.1,0.3-0.1c0.2-0.1,0.4-0.1,0.5-0.2c0,0,0.1-0.2,0.2-0.2c0.1-0.1,0.2-0.1,0.3-0.1c0.2-0.1,0.4-0.1,0.5-0.2
	c0,0,0.1-0.2,0.2-0.2c0.1-0.1,0.2-0.1,0.3-0.1c0-0.5,0.1-0.5,0.2-0.5c0.1,0,0.1-0.1,0.1-0.1c0.3-0.1,0.7-0.1,0.9-0.2
	c0.1,0,0.1-0.2,0.2-0.2c0.2-0.1,0.4-0.1,0.5-0.2c1-0.5,2.1-0.9,3.1-1.4c0.2-0.1,0.3-0.2,0.4-0.2c0.1,0,0.2-0.1,0.3-0.1s0.1,0,0.2,0
	c0,0,0.1-0.2,0.2-0.2c0.1,0,0.1,0,0.2,0c0.1,0,0.1-0.1,0.1-0.1c0.3-0.1,0.6-0.2,0.8-0.3c0,0,0.1-0.2,0.2-0.2
	c0.1-0.1,0.2-0.1,0.3-0.1c0.2-0.1,0.3-0.2,0.5-0.2c1-0.2,1.7,0.2,2.6,0c0.2,0.2,0.6,0.2,0.8,0.3c0.1,0,0.1,0.1,0.2,0.2
	c0.1,0,0.2,0,0.3,0.1c0.1,0,0.1,0.1,0.2,0.2c0.1,0.1,0.3,0.2,0.5,0.3c0.6,0.3,1.3,0.7,1.9,1c0.1,0,0.2,0,0.3,0.1
	c0.1,0,0.1,0.1,0.2,0.2c0.1,0,0.2,0,0.3,0.1c0.1,0,0.1,0.1,0.2,0.2c0.2,0.1,0.4,0.1,0.6,0.2c0.1,0,0.1,0.1,0.2,0.2
	c0.1,0,0.2,0,0.3,0.1c0.4,0.2,0.7,0.3,1.1,0.4c0.2,0.1,0.6,0.2,0.7,0.2c0.1,0,0.2,0.1,0.3,0.1s0.2,0.1,0.3,0.1s0.2,0.1,0.3,0.1
	s0.1,0,0.2,0c0,0,0.1,0.2,0.2,0.2c0.1,0,0.1,0,0.2,0c0.1,0,0.1,0.1,0.1,0.1c0.3,0.1,0.7,0.1,0.9,0.2c0.1,0,0.1,0.1,0.2,0.2
	c0.2,0.1,0.4,0.1,0.6,0.2c0.1,0,0.1,0.1,0.2,0.2c0.1,0.1,0.2,0,0.3,0.1c0.1,0,0.1,0.1,0.2,0.2c0.2,0.1,0.4,0.1,0.6,0.2
	c0.1,0,0.1,0.2,0.2,0.2c0.1,0,0.1,0,0.2,0c0.1,0,0.1,0.1,0.1,0.1c0.3,0.1,0.4,0.1,0.6,0.2c0.1,0,0.1,0.1,0.2,0.2
	c0.2,0.1,0.4,0.1,0.6,0.2c0.1,0,0.1,0.1,0.2,0.2c0.1,0,0.2,0,0.3,0.1c0.6,0.2,1.1,0.4,1.5,0.7c0.2,0.1,0.2,0.3,0.4,0.3
	c0.1,0,0.1,0.1,0.1,0.1c0.2,0.1,0.4,0.1,0.6,0.2c0.2,0.1,0.4,0.2,0.5,0.2s0.1,0.1,0.1,0.1c0.2,0.1,0.3,0,0.5,0.1
	c0.1,0,0.1,0.1,0.1,0.1c0.2,0.1,0.4,0.1,0.7,0.1c0,0,0.1,0.2,0.2,0.2s0.2,0,0.3,0.1c0.3,0.1,0.5,0.2,0.8,0.2
	c0.3,0.1,0.7,0.4,1.1,0.2c0.2-0.4-0.2-0.7-0.3-0.9c-0.1-0.1-0.2-0.3-0.3-0.4c0-0.1-0.2-0.1-0.2-0.2c-0.7-1.3-0.7-1.4-0.8-1.5H50
	v-0.2c0-0.1-0.1-0.1-0.2-0.2c-0.1-0.2-0.2-0.3-0.3-0.4c0-0.1-0.2-0.1-0.2-0.2c-0.1-0.1,0-0.2-0.1-0.3c0-0.1-0.2-0.1-0.2-0.2
	c-0.1-0.1-0.1-0.2-0.1-0.3c-0.2-0.2-0.3-0.5-0.4-0.6c0-0.1-0.2-0.1-0.2-0.2c-0.1-0.2-0.2-0.3-0.3-0.4c-0.1-0.1-0.1-0.1-0.2-0.2
	c-0.1-0.1,0-0.2-0.1-0.3s-0.3-0.1-0.4-0.3c-0.1,0.1-0.1,0-0.1-0.1c0-0.1-0.2-0.1-0.2-0.2c-0.1-0.1-0.2-0.3-0.3-0.4
	c-0.1-0.1-0.3-0.2-0.4-0.4c-0.2-0.3-0.4-0.5-0.6-0.8c-0.1-0.1-0.2-0.3-0.3-0.4c-0.1-0.1-0.4-0.3-0.4-0.4c0-0.1-0.2-0.3-0.2-0.4
	c-0.1-0.1-0.2-0.3-0.3-0.4c0-0.1-0.2-0.1-0.2-0.2c-0.1-0.2-0.2-0.3-0.3-0.4c0-0.1-0.2-0.2-0.2-0.3s-0.1,0-0.1-0.1
	c-0.1-0.2-0.2-0.3-0.3-0.4c-0.1-0.1,0-0.2-0.1-0.3S43.1,21,43,20.9c-0.1-0.1-0.3-0.2-0.4-0.4c-0.1-0.1-0.1-0.2-0.1-0.3
	s-0.2-0.1-0.2-0.2c-0.1-0.1-0.1-0.1-0.2-0.2c-0.1-0.1,0-0.2-0.1-0.3c0-0.1-0.2-0.1-0.2-0.2c-0.1-0.1-0.1-0.2-0.1-0.3
	s-0.2-0.1-0.2-0.2c-0.1-0.1-0.1-0.2-0.1-0.3h-0.1v-0.2c0-0.1-0.2-0.1-0.2-0.2C41,18,41,17.9,41,17.8c-0.1-0.2-0.2-0.3-0.3-0.4
	c0-0.1-0.2-0.1-0.2-0.2c-0.1-0.1-0.1-0.2-0.1-0.3s-0.2-0.2-0.2-0.3s-0.1,0-0.1-0.1c-0.1-0.2-0.2-0.3-0.3-0.4c0-0.1-0.2-0.1-0.2-0.2
	c-0.1-0.1,0-0.2-0.1-0.3c0,0-0.2-0.1-0.2-0.2c-0.1-0.1-0.2-0.3-0.3-0.4c0,0-0.2,0-0.2-0.1c-0.1-0.1,0-0.2-0.1-0.3s-0.3-0.2-0.4-0.3
	c-0.1-0.1-0.1-0.2-0.1-0.3S38,13.9,38,13.8c-0.1-0.1-0.2-0.3-0.3-0.4c-0.3-0.3-0.6-0.7-0.8-1c-0.1-0.2-0.2-0.3-0.3-0.4
	c0-0.1-0.2-0.1-0.2-0.2c0-0.1-0.1-0.1-0.1-0.2c-0.2-0.3-0.4-0.3-0.6-0.5c-0.1-0.1-0.1-0.2-0.1-0.3c-0.1-0.1-0.1-0.1-0.2-0.2
	c-0.1-0.1-0.3-0.2-0.4-0.4c-0.5-0.5-0.9-1-1.4-1.5c-0.1-0.1-0.2-0.2-0.3-0.4c-0.2-0.3-0.6-0.5-0.8-0.7c-0.1-0.1-0.2-0.3-0.3-0.4
	C32,7,31.7,6.8,31.6,6.7c-0.1-0.2-0.2-0.4-0.3-0.4c-0.1-0.1-0.2,0-0.3-0.1c-0.2-0.1-0.1-0.2-0.3-0.3c-0.1,0-0.2,0-0.3,0
	C30,6.2,30.1,6.4,30,6.5z"/>
</svg>
